<svg xmlns="http://www.w3.org/2000/svg" viewBox="46 -9 1762 915" width="1762" height="915" font-family="system-ui, sans-serif">
<rect x="46" y="-9" width="1762" height="915" fill="#0a0d11"/>
<path d="M1006 594 C 1006 455.85 899 425.15 899 287" fill="none" stroke="#3ea6ff" stroke-width="1.1" opacity="0.22"/>
<path d="M1006 594 C 1006 455.85 899 425.15 899 287" fill="none" stroke="#3ea6ff" stroke-width="1.3" stroke-dasharray="2 6" opacity="0.72"/>
<path d="M976 594 C 976 541.35 516 529.65 516 477" fill="none" stroke="#3ea6ff" stroke-width="1.1" opacity="0.22"/>
<path d="M976 594 C 976 541.35 516 529.65 516 477" fill="none" stroke="#3ea6ff" stroke-width="1.3" stroke-dasharray="2 6" opacity="0.72"/>
<path d="M918 632 C 707.5 1162 707.5 1162 497 632" fill="none" stroke="#3ea6ff" stroke-width="1.1" opacity="0.22"/>
<path d="M918 632 C 707.5 1162 707.5 1162 497 632" fill="none" stroke="#3ea6ff" stroke-width="1.3" stroke-dasharray="2 6" opacity="0.72"/>
<path d="M1236 784 C 676 560.35 309 510.65 869 287" fill="none" stroke="#3ea6ff" stroke-width="1.1" opacity="0.22"/>
<path d="M1236 784 C 676 560.35 309 510.65 869 287" fill="none" stroke="#3ea6ff" stroke-width="1.3" stroke-dasharray="2 6" opacity="0.72"/>
<path d="M177.4 670 C 177.4 721.3 391.4 732.7 391.4 784" fill="none" stroke="#f2b544" stroke-width="1.1" opacity="0.26"/>
<path d="M177.4 670 C 177.4 721.3 391.4 732.7 391.4 784" fill="none" stroke="#f2b544" stroke-width="1.4" stroke-dasharray="5 7" opacity="0.8"/>
<path d="M182.6 670 C 182.6 721.3 396.6 732.7 396.6 784" fill="none" stroke="#f2b544" stroke-width="1.1" opacity="0.26"/>
<path d="M182.6 670 C 182.6 721.3 396.6 732.7 396.6 784" fill="none" stroke="#f2b544" stroke-width="1.4" stroke-dasharray="5 7" opacity="0.8"/>
<path d="M406.4 670 C 406.4 721.3 421.4 732.7 421.4 784" fill="none" stroke="#f2b544" stroke-width="1.1" opacity="0.26"/>
<path d="M406.4 670 C 406.4 721.3 421.4 732.7 421.4 784" fill="none" stroke="#f2b544" stroke-width="1.4" stroke-dasharray="5 7" opacity="0.8"/>
<path d="M411.6 670 C 411.6 721.3 426.6 732.7 426.6 784" fill="none" stroke="#f2b544" stroke-width="1.1" opacity="0.26"/>
<path d="M411.6 670 C 411.6 721.3 426.6 732.7 426.6 784" fill="none" stroke="#f2b544" stroke-width="1.4" stroke-dasharray="5 7" opacity="0.8"/>
<path d="M884 113 C 884 157.1 884 166.9 884 211" fill="none" stroke="#5f6b79" stroke-width="1.1" opacity="0.3"/>
<path d="M884 113 C 884 157.1 884 166.9 884 211" fill="none" stroke="#5f6b79" stroke-width="1.5" stroke-dasharray="5 7" opacity="0.9"/>
<path d="M836.4 287 C 836.4 338.3 468.4 349.7 468.4 401" fill="none" stroke="#5f6b79" stroke-width="1.1" opacity="0.3"/>
<path d="M836.4 287 C 836.4 338.3 468.4 349.7 468.4 401" fill="none" stroke="#5f6b79" stroke-width="1.5" stroke-dasharray="5 7" opacity="0.9"/>
<path d="M841.6 287 C 841.6 338.3 473.6 349.7 473.6 401" fill="none" stroke="#5f6b79" stroke-width="1.1" opacity="0.3"/>
<path d="M841.6 287 C 841.6 338.3 473.6 349.7 473.6 401" fill="none" stroke="#5f6b79" stroke-width="1.5" stroke-dasharray="5 7" opacity="0.9"/>
<path d="M926.4 287 C 926.4 338.3 1248.4 349.7 1248.4 401" fill="none" stroke="#5f6b79" stroke-width="1.1" opacity="0.3"/>
<path d="M926.4 287 C 926.4 338.3 1248.4 349.7 1248.4 401" fill="none" stroke="#5f6b79" stroke-width="1.5" stroke-dasharray="5 7" opacity="0.9"/>
<path d="M931.6 287 C 931.6 338.3 1253.6 349.7 1253.6 401" fill="none" stroke="#5f6b79" stroke-width="1.1" opacity="0.3"/>
<path d="M931.6 287 C 931.6 338.3 1253.6 349.7 1253.6 401" fill="none" stroke="#5f6b79" stroke-width="1.5" stroke-dasharray="5 7" opacity="0.9"/>
<path d="M423.4 477 C 423.4 529.65 177.4 541.35 177.4 594" fill="none" stroke="#5f6b79" stroke-width="1.1" opacity="0.3"/>
<path d="M423.4 477 C 423.4 529.65 177.4 541.35 177.4 594" fill="none" stroke="#5f6b79" stroke-width="1.5" stroke-dasharray="5 7" opacity="0.9"/>
<path d="M428.6 477 C 428.6 529.65 182.6 541.35 182.6 594" fill="none" stroke="#5f6b79" stroke-width="1.1" opacity="0.3"/>
<path d="M428.6 477 C 428.6 529.65 182.6 541.35 182.6 594" fill="none" stroke="#5f6b79" stroke-width="1.5" stroke-dasharray="5 7" opacity="0.9"/>
<path d="M453.4 477 C 453.4 529.65 406.4 541.35 406.4 594" fill="none" stroke="#5f6b79" stroke-width="1.1" opacity="0.3"/>
<path d="M453.4 477 C 453.4 529.65 406.4 541.35 406.4 594" fill="none" stroke="#5f6b79" stroke-width="1.5" stroke-dasharray="5 7" opacity="0.9"/>
<path d="M458.6 477 C 458.6 529.65 411.6 541.35 411.6 594" fill="none" stroke="#5f6b79" stroke-width="1.1" opacity="0.3"/>
<path d="M458.6 477 C 458.6 529.65 411.6 541.35 411.6 594" fill="none" stroke="#5f6b79" stroke-width="1.5" stroke-dasharray="5 7" opacity="0.9"/>
<path d="M486 477 C 486 529.65 639 541.35 639 594" fill="none" stroke="#f0655a" stroke-width="1.1" opacity="0.26"/>
<path d="M486 477 C 486 529.65 639 541.35 639 594" fill="none" stroke="#f0655a" stroke-width="1.5" stroke-dasharray="4 6" opacity="0.8"/>
<path d="M1339 436.4 C 1457.5 436.4 1457.5 436.4 1576 436.4" fill="none" stroke="#5f6b79" stroke-width="1.1" opacity="0.3"/>
<path d="M1339 436.4 C 1457.5 436.4 1457.5 436.4 1576 436.4" fill="none" stroke="#5f6b79" stroke-width="1.5" stroke-dasharray="5 7" opacity="0.9"/>
<path d="M1339 441.6 C 1457.5 441.6 1457.5 441.6 1576 441.6" fill="none" stroke="#5f6b79" stroke-width="1.1" opacity="0.3"/>
<path d="M1339 441.6 C 1457.5 441.6 1457.5 441.6 1576 441.6" fill="none" stroke="#5f6b79" stroke-width="1.5" stroke-dasharray="5 7" opacity="0.9"/>
<path d="M1218.4 477 C 1218.4 529.65 1033.4 541.35 1033.4 594" fill="none" stroke="#5f6b79" stroke-width="1.1" opacity="0.3"/>
<path d="M1218.4 477 C 1218.4 529.65 1033.4 541.35 1033.4 594" fill="none" stroke="#5f6b79" stroke-width="1.5" stroke-dasharray="5 7" opacity="0.9"/>
<path d="M1223.6 477 C 1223.6 529.65 1038.6 541.35 1038.6 594" fill="none" stroke="#5f6b79" stroke-width="1.1" opacity="0.3"/>
<path d="M1223.6 477 C 1223.6 529.65 1038.6 541.35 1038.6 594" fill="none" stroke="#5f6b79" stroke-width="1.5" stroke-dasharray="5 7" opacity="0.9"/>
<path d="M1248.4 477 C 1248.4 529.65 1230.4 541.35 1230.4 594" fill="none" stroke="#5f6b79" stroke-width="1.1" opacity="0.3"/>
<path d="M1248.4 477 C 1248.4 529.65 1230.4 541.35 1230.4 594" fill="none" stroke="#5f6b79" stroke-width="1.5" stroke-dasharray="5 7" opacity="0.9"/>
<path d="M1253.6 477 C 1253.6 529.65 1235.6 541.35 1235.6 594" fill="none" stroke="#5f6b79" stroke-width="1.1" opacity="0.3"/>
<path d="M1253.6 477 C 1253.6 529.65 1235.6 541.35 1235.6 594" fill="none" stroke="#5f6b79" stroke-width="1.5" stroke-dasharray="5 7" opacity="0.9"/>
<path d="M1278.4 477 C 1278.4 529.65 1456.4 541.35 1456.4 594" fill="none" stroke="#5f6b79" stroke-width="1.1" opacity="0.3"/>
<path d="M1278.4 477 C 1278.4 529.65 1456.4 541.35 1456.4 594" fill="none" stroke="#5f6b79" stroke-width="1.5" stroke-dasharray="5 7" opacity="0.9"/>
<path d="M1283.6 477 C 1283.6 529.65 1461.6 541.35 1461.6 594" fill="none" stroke="#5f6b79" stroke-width="1.1" opacity="0.3"/>
<path d="M1283.6 477 C 1283.6 529.65 1461.6 541.35 1461.6 594" fill="none" stroke="#5f6b79" stroke-width="1.5" stroke-dasharray="5 7" opacity="0.9"/>
<path d="M1426.4 670 C 1426.4 721.3 1263.4 732.7 1263.4 784" fill="none" stroke="#5f6b79" stroke-width="1.1" opacity="0.3"/>
<path d="M1426.4 670 C 1426.4 721.3 1263.4 732.7 1263.4 784" fill="none" stroke="#5f6b79" stroke-width="1.5" stroke-dasharray="5 7" opacity="0.9"/>
<path d="M1431.6 670 C 1431.6 721.3 1268.6 732.7 1268.6 784" fill="none" stroke="#5f6b79" stroke-width="1.1" opacity="0.3"/>
<path d="M1431.6 670 C 1431.6 721.3 1268.6 732.7 1268.6 784" fill="none" stroke="#5f6b79" stroke-width="1.5" stroke-dasharray="5 7" opacity="0.9"/>
<path d="M1456.4 670 C 1456.4 721.3 1459.4 732.7 1459.4 784" fill="none" stroke="#5f6b79" stroke-width="1.1" opacity="0.3"/>
<path d="M1456.4 670 C 1456.4 721.3 1459.4 732.7 1459.4 784" fill="none" stroke="#5f6b79" stroke-width="1.5" stroke-dasharray="5 7" opacity="0.9"/>
<path d="M1461.6 670 C 1461.6 721.3 1464.6 732.7 1464.6 784" fill="none" stroke="#5f6b79" stroke-width="1.1" opacity="0.3"/>
<path d="M1461.6 670 C 1461.6 721.3 1464.6 732.7 1464.6 784" fill="none" stroke="#5f6b79" stroke-width="1.5" stroke-dasharray="5 7" opacity="0.9"/>
<path d="M1489 670 C 1489 721.3 1674 732.7 1674 784" fill="none" stroke="#5f6b79" stroke-width="1.1" opacity="0.3"/>
<path d="M1489 670 C 1489 721.3 1674 732.7 1674 784" fill="none" stroke="#5f6b79" stroke-width="1.5" stroke-dasharray="5 7" opacity="0.9"/>
<rect x="796" y="37" width="176" height="76" rx="12" fill="#141a21" stroke="#26303b"/>
<circle cx="822" cy="63" r="7" fill="#3ecf8e"/>
<text x="840" y="67" font-size="12.5" font-weight="600" fill="#e7edf4">Internet</text>
<text x="810" y="93" font-size="10.5" fill="#6b7686" font-family="ui-monospace, monospace">Fibre · 1000/300</text>
<rect x="796" y="211" width="176" height="76" rx="12" fill="#141a21" stroke="#26303b"/>
<circle cx="822" cy="237" r="7" fill="#3ecf8e"/>
<text x="840" y="241" font-size="12.5" font-weight="600" fill="#e7edf4">Gateway</text>
<text x="810" y="267" font-size="10.5" fill="#6b7686" font-family="ui-monospace, monospace">10.0.1.1 · trunk</text>
<rect x="383" y="401" width="176" height="76" rx="12" fill="#141a21" stroke="#26303b"/>
<circle cx="409" cy="427" r="7" fill="#3ecf8e"/>
<text x="427" y="431" font-size="12.5" font-weight="600" fill="#e7edf4">Core switch</text>
<text x="397" y="457" font-size="10.5" fill="#6b7686" font-family="ui-monospace, monospace">10.0.1.2 · 24 PoE</text>
<rect x="92" y="594" width="176" height="76" rx="12" fill="#141a21" stroke="#26303b"/>
<circle cx="118" cy="620" r="7" fill="#3ecf8e"/>
<text x="136" y="624" font-size="12.5" font-weight="600" fill="#e7edf4">AP – Living room</text>
<text x="106" y="650" font-size="10.5" fill="#6b7686" font-family="ui-monospace, monospace">10.0.1.21 · U6 Pro</text>
<rect x="321" y="594" width="176" height="76" rx="12" fill="#141a21" stroke="#26303b"/>
<circle cx="347" cy="620" r="7" fill="#f2b544"/>
<text x="365" y="624" font-size="12.5" font-weight="600" fill="#e7edf4">AP – Upstairs</text>
<text x="335" y="650" font-size="10.5" fill="#6b7686" font-family="ui-monospace, monospace">10.0.1.22 · U6 Lite</text>
<rect x="551" y="594" width="176" height="76" rx="12" fill="#141a21" stroke="#26303b"/>
<circle cx="577" cy="620" r="7" fill="#f0655a"/>
<text x="595" y="624" font-size="12.5" font-weight="600" fill="#e7edf4">AP – Garage</text>
<text x="565" y="650" font-size="10.5" fill="#6b7686" font-family="ui-monospace, monospace">10.0.1.23 · offline</text>
<rect x="321" y="784" width="176" height="76" rx="12" fill="#141a21" stroke="#26303b"/>
<circle cx="347" cy="810" r="7" fill="#5f6b79"/>
<text x="365" y="814" font-size="12.5" font-weight="600" fill="#e7edf4">Clients · 38</text>
<text x="335" y="840" font-size="10.5" fill="#6b7686" font-family="ui-monospace, monospace">inferred classification</text>
<rect x="1163" y="401" width="176" height="76" rx="12" fill="#141a21" stroke="#26303b"/>
<circle cx="1189" cy="427" r="7" fill="#f2b544"/>
<text x="1207" y="431" font-size="12.5" font-weight="600" fill="#e7edf4">pve01</text>
<text x="1177" y="457" font-size="10.5" fill="#6b7686" font-family="ui-monospace, monospace">10.0.1.10 · PVE 8.2</text>
<rect x="1576" y="401" width="176" height="76" rx="12" fill="#141a21" stroke="#26303b"/>
<circle cx="1602" cy="427" r="7" fill="#f2b544"/>
<text x="1620" y="431" font-size="12.5" font-weight="600" fill="#e7edf4">ZFS tank</text>
<text x="1590" y="457" font-size="10.5" fill="#6b7686" font-family="ui-monospace, monospace">RAIDZ1 · 4 × 4 TB</text>
<rect x="918" y="594" width="176" height="76" rx="12" fill="#141a21" stroke="#26303b"/>
<circle cx="944" cy="620" r="7" fill="#3ecf8e"/>
<text x="962" y="624" font-size="12.5" font-weight="600" fill="#e7edf4">UniFi Controller</text>
<text x="932" y="650" font-size="10.5" fill="#6b7686" font-family="ui-monospace, monospace">LXC 101 · 10.0.1.12</text>
<rect x="1145" y="594" width="176" height="76" rx="12" fill="#141a21" stroke="#26303b"/>
<circle cx="1171" cy="620" r="7" fill="#3ecf8e"/>
<text x="1189" y="624" font-size="12.5" font-weight="600" fill="#e7edf4">Home Assistant</text>
<text x="1159" y="650" font-size="10.5" fill="#6b7686" font-family="ui-monospace, monospace">VM 201 · 10.0.20.10</text>
<rect x="1371" y="594" width="176" height="76" rx="12" fill="#141a21" stroke="#26303b"/>
<circle cx="1397" cy="620" r="7" fill="#f2b544"/>
<text x="1415" y="624" font-size="12.5" font-weight="600" fill="#e7edf4">Docker host</text>
<text x="1385" y="650" font-size="10.5" fill="#6b7686" font-family="ui-monospace, monospace">VM 202 · 10.0.40.12</text>
<rect x="1163" y="784" width="176" height="76" rx="12" fill="#141a21" stroke="#26303b"/>
<circle cx="1189" cy="810" r="7" fill="#3ecf8e"/>
<text x="1207" y="814" font-size="12.5" font-weight="600" fill="#e7edf4">AdGuard Home</text>
<text x="1177" y="840" font-size="10.5" fill="#6b7686" font-family="ui-monospace, monospace">DNS · :53</text>
<rect x="1374" y="784" width="176" height="76" rx="12" fill="#141a21" stroke="#26303b"/>
<circle cx="1400" cy="810" r="7" fill="#f2b544"/>
<text x="1418" y="814" font-size="12.5" font-weight="600" fill="#e7edf4">Nextcloud</text>
<text x="1388" y="840" font-size="10.5" fill="#6b7686" font-family="ui-monospace, monospace">Files · :443</text>
<rect x="1586" y="784" width="176" height="76" rx="12" fill="#141a21" stroke="#26303b"/>
<circle cx="1612" cy="810" r="7" fill="#f0655a"/>
<text x="1630" y="814" font-size="12.5" font-weight="600" fill="#e7edf4">GitLab</text>
<text x="1600" y="840" font-size="10.5" fill="#6b7686" font-family="ui-monospace, monospace">DevOps · :8443</text>
<line x1="884" y1="183.28" x2="884" y2="183.28" stroke="#36434f" stroke-width="1"/>
<rect x="867" y="172.28" width="34" height="22" rx="6" fill="#141a21" stroke="#26303b"/>
<rect x="871" y="176.28" width="13" height="13" rx="4" fill="#22c55e"/>
<text x="888" y="187.28" font-size="10" fill="#e7edf4" font-family="ui-monospace, monospace">1</text>
<line x1="819.24" y1="307.66" x2="819.24" y2="307.66" stroke="#36434f" stroke-width="1"/>
<rect x="802.24" y="296.66" width="34" height="22" rx="6" fill="#141a21" stroke="#26303b"/>
<rect x="806.24" y="300.66" width="13" height="13" rx="4" fill="#22c55e"/>
<text x="823.24" y="311.66" font-size="10" fill="#e7edf4" font-family="ui-monospace, monospace">2</text>
<line x1="495.96" y1="380.34" x2="495.96" y2="380.34" stroke="#36434f" stroke-width="1"/>
<rect x="478.96" y="369.34" width="34" height="22" rx="6" fill="#141a21" stroke="#26303b"/>
<rect x="482.96" y="373.34" width="13" height="13" rx="4" fill="#22c55e"/>
<text x="499.96" y="384.34" font-size="10" fill="#e7edf4" font-family="ui-monospace, monospace">1</text>
<line x1="951.16" y1="307.66" x2="951.16" y2="307.66" stroke="#36434f" stroke-width="1"/>
<rect x="934.16" y="296.66" width="34" height="22" rx="6" fill="#141a21" stroke="#26303b"/>
<rect x="938.16" y="300.66" width="13" height="13" rx="4" fill="#3b82f6"/>
<text x="955.16" y="311.66" font-size="10" fill="#e7edf4" font-family="ui-monospace, monospace">3</text>
<line x1="1234.04" y1="380.34" x2="1234.04" y2="380.34" stroke="#36434f" stroke-width="1"/>
<rect x="1217.04" y="369.34" width="34" height="22" rx="6" fill="#141a21" stroke="#26303b"/>
<rect x="1221.04" y="373.34" width="13" height="13" rx="4" fill="#3b82f6"/>
<text x="1238.04" y="384.34" font-size="10" fill="#e7edf4" font-family="ui-monospace, monospace">1</text>
<line x1="408.64" y1="501.32" x2="400.85" y2="501.32" stroke="#36434f" stroke-width="1"/>
<rect x="383.85" y="490.32" width="34" height="22" rx="6" fill="#141a21" stroke="#26303b"/>
<rect x="387.85" y="494.32" width="13" height="13" rx="4" fill="#22c55e"/>
<text x="404.85" y="505.32" font-size="10" fill="#e7edf4" font-family="ui-monospace, monospace">5</text>
<line x1="202.56" y1="569.68" x2="202.56" y2="569.68" stroke="#36434f" stroke-width="1"/>
<rect x="185.56" y="558.68" width="34" height="22" rx="6" fill="#141a21" stroke="#26303b"/>
<rect x="189.56" y="562.68" width="13" height="13" rx="4" fill="#22c55e"/>
<text x="206.56" y="573.68" font-size="10" fill="#e7edf4" font-family="ui-monospace, monospace">1</text>
<line x1="453.71" y1="504.33" x2="453.85" y2="504.33" stroke="#36434f" stroke-width="1"/>
<rect x="436.85" y="493.33" width="34" height="22" rx="6" fill="#141a21" stroke="#26303b"/>
<rect x="440.85" y="497.33" width="13" height="13" rx="4" fill="#f59e0b"/>
<text x="457.85" y="508.33" font-size="10" fill="#e7edf4" font-family="ui-monospace, monospace">6</text>
<line x1="416.49" y1="566.67" x2="416.49" y2="566.67" stroke="#36434f" stroke-width="1"/>
<rect x="399.49" y="555.67" width="34" height="22" rx="6" fill="#141a21" stroke="#26303b"/>
<rect x="403.49" y="559.67" width="13" height="13" rx="4" fill="#f59e0b"/>
<text x="420.49" y="570.67" font-size="10" fill="#e7edf4" font-family="ui-monospace, monospace">1</text>
<line x1="498.42" y1="501.32" x2="506.08" y2="501.32" stroke="#36434f" stroke-width="1"/>
<rect x="489.08" y="490.32" width="34" height="22" rx="6" fill="#141a21" stroke="#26303b"/>
<rect x="493.08" y="494.32" width="13" height="13" rx="4" fill="#5f6b79"/>
<text x="510.08" y="505.32" font-size="10" fill="#e7edf4" font-family="ui-monospace, monospace">7</text>
<line x1="626.58" y1="569.68" x2="626.58" y2="569.68" stroke="#36434f" stroke-width="1"/>
<rect x="609.58" y="558.68" width="34" height="22" rx="6" fill="#141a21" stroke="#26303b"/>
<rect x="613.58" y="562.68" width="13" height="13" rx="4" fill="#5f6b79"/>
<text x="630.58" y="573.68" font-size="10" fill="#e7edf4" font-family="ui-monospace, monospace">1</text>
</svg>